<?xml version="1.0" encoding="UTF-8" standalone="no"?>
<!-- Created with Inkscape (http://www.inkscape.org/) -->

<svg
   xmlns:dc="http://purl.org/dc/elements/1.1/"
   xmlns:cc="http://creativecommons.org/ns#"
   xmlns:rdf="http://www.w3.org/1999/02/22-rdf-syntax-ns#"
   xmlns:svg="http://www.w3.org/2000/svg"
   xmlns="http://www.w3.org/2000/svg"
   xmlns:sodipodi="http://sodipodi.sourceforge.net/DTD/sodipodi-0.dtd"
   xmlns:inkscape="http://www.inkscape.org/namespaces/inkscape"
   width="64"
   height="64"
   viewBox="0 0 16.933333 16.933333"
   version="1.1"
   id="svg8"
   inkscape:version="0.92.2 (5c3e80d, 2017-08-06)"
   sodipodi:docname="speckle.svg">
  <defs
     id="defs2" />
  <sodipodi:namedview
     id="base"
     pagecolor="#ffffff"
     bordercolor="#666666"
     borderopacity="1.0"
     inkscape:pageopacity="0.0"
     inkscape:pageshadow="2"
     inkscape:zoom="7.9195959"
     inkscape:cx="23.463789"
     inkscape:cy="33.797773"
     inkscape:document-units="mm"
     inkscape:current-layer="g844"
     showgrid="false"
     units="px"
     width="64px"
     inkscape:window-width="1920"
     inkscape:window-height="1051"
     inkscape:window-x="0"
     inkscape:window-y="0"
     inkscape:window-maximized="1" />
  <metadata
     id="metadata5">
    <rdf:RDF>
      <cc:Work
         rdf:about="">
        <dc:format>image/svg+xml</dc:format>
        <dc:type
           rdf:resource="http://purl.org/dc/dcmitype/StillImage" />
        <dc:title></dc:title>
      </cc:Work>
    </rdf:RDF>
  </metadata>
  <g
     inkscape:label="Layer 1"
     inkscape:groupmode="layer"
     id="layer1"
     transform="translate(0,-280.06667)">
    <g
       id="g844"
       transform="translate(-5.3453907,1.6036169)">
      <g
         id="g854"
         transform="matrix(0.18908696,0,0,0.18908696,-0.48919796,262.18987)">
        <path
           inkscape:connector-curvature="0"
           id="path850"
           d="m 115.38371,95.446977 -0.37798,67.988463 -67.331528,9.25082 0.0045,-67.93162 z"
           style="fill:#eeeeee;fill-opacity:1;fill-rule:evenodd;stroke:none;stroke-width:0.26458332px;stroke-linecap:butt;stroke-linejoin:miter;stroke-opacity:1" />
        <path
           inkscape:connector-curvature="0"
           id="path846"
           d="m 40.664774,170.15567 -6.075244,-3.255 -0.01017,-34.64444 -0.01017,-34.644428 1.146528,-0.200039 c 2.803741,-0.489181 66.583482,-9.356932 67.298092,-9.356932 0.43934,0 3.55024,1.468437 6.91311,3.263194 l 6.11431,3.263195 0.01,34.64444 0.01,34.64443 -1.14653,0.20004 c -3.04096,0.53057 -66.607614,9.35587 -67.336803,9.34873 -0.460629,-0.005 -3.571367,-1.47295 -6.912751,-3.26319 z m 41.493774,-2.9338 c 17.385083,-2.44272 31.807682,-4.60529 32.050222,-4.8057 0.34699,-0.28674 0.44097,-7.34695 0.44097,-33.12953 V 96.521498 l -0.79375,0.01515 c -1.27626,0.02437 -64.806926,9.023492 -64.989156,9.205722 -0.270127,0.27012 -0.675001,63.92105 -0.413226,64.96404 0.184997,0.73709 0.453146,0.95676 1.167909,0.95676 0.510277,0 15.151941,-1.99859 32.537031,-4.44131 z m -28.73297,-26.63101 c -0.131343,-0.21251 -0.09256,-0.53263 0.08618,-0.71137 0.192673,-0.19268 8.503223,-0.28788 20.412733,-0.23385 17.58009,0.0798 20.08775,0.1572 20.08775,0.62031 0,0.46314 -2.51721,0.54053 -20.173926,0.62024 -14.329382,0.0647 -20.243112,-0.0209 -20.412734,-0.29533 z m 2.038734,-3.94089 c -0.448249,-0.55224 -1.845127,-5.51017 -1.845127,-6.54889 0,-0.5193 0.216379,-0.77125 0.662359,-0.77125 0.886075,0 1.340887,0.61287 1.639119,2.20876 0.350296,1.87448 0.777807,1.93828 1.227253,0.18314 0.601624,-2.34942 0.629362,-2.3919 1.561877,-2.3919 0.739223,0 0.940603,0.23902 1.263212,1.49931 0.211086,0.82462 0.454208,1.7078 0.540272,1.96264 0.260755,0.77208 0.772248,0.15276 1.034984,-1.25319 0.136373,-0.72975 0.411932,-1.52525 0.612355,-1.76778 0.548946,-0.66429 1.690367,-0.54457 1.681722,0.17638 -0.01377,1.1488 -1.751455,6.56979 -2.196501,6.85236 -1.110899,0.70534 -1.636462,0.237 -2.216392,-1.97507 -0.479606,-1.82939 -1.079872,-1.9646 -1.38971,-0.31302 -0.137413,0.73247 -0.400087,1.61251 -0.583719,1.95563 -0.387059,0.72323 -1.472236,0.82287 -1.991704,0.18288 z m 10.474958,-0.59022 c -2.134242,-2.13424 -0.948879,-6.38248 1.931652,-6.92287 3.86808,-0.72566 6.2451,4.05858 3.469928,6.98393 -0.759492,0.80059 -1.221811,0.97014 -2.645359,0.97014 -1.436235,0 -1.897658,-0.17264 -2.756221,-1.0312 z m 4.16715,-1.8338 c 0.953809,-1.99974 -0.913084,-4.27987 -2.401405,-2.93296 -0.782674,0.70831 -0.931248,2.93643 -0.24178,3.6259 0.712374,0.71237 2.153045,0.33468 2.643185,-0.69294 z m 4.135142,2.42363 c -0.104155,-0.27143 -0.143362,-1.98441 -0.08713,-3.80663 l 0.102249,-3.31313 2.028472,-0.0616 c 1.897723,-0.0577 2.028473,-0.009 2.028473,0.74744 0,0.57821 -0.296069,0.91229 -1.037544,1.17077 -1.088606,0.37949 -1.317696,1.00047 -1.517795,4.11412 -0.06538,1.0174 -0.262114,1.4407 -0.708921,1.52538 -0.340138,0.0645 -0.703651,-0.10488 -0.807808,-0.37631 z m 5.528102,-0.0337 c -0.28829,-0.34736 -0.388412,-1.92334 -0.320337,-5.04221 l 0.09902,-4.5369 0.970139,-0.11163 c 0.963062,-0.11081 0.970139,-0.0962 0.970139,2.00765 0,1.16561 0.134458,2.20238 0.298796,2.30395 0.164334,0.10156 0.749659,-0.28594 1.300723,-0.86113 0.961196,-1.00327 2.384362,-1.38204 2.781064,-0.74016 0.103889,0.1681 -0.13957,0.60289 -0.541024,0.96619 -1.418907,1.2841 -1.455138,1.7544 -0.282035,3.66094 1.162773,1.88975 1.158046,2.82836 -0.01425,2.82836 -0.449161,0 -1.046583,-0.5297 -1.617561,-1.43418 -1.050925,-1.66478 -1.67689,-1.64947 -1.925715,0.0471 -0.191869,1.30823 -1.023821,1.74964 -1.718966,0.91204 z m 8.068967,-0.2305 c -1.411652,-1.41165 -0.34326,-2.24984 1.56075,-1.22446 1.2091,0.65115 2.48849,0.49578 2.23284,-0.27117 -0.0801,-0.2403 -0.88999,-0.64715 -1.79974,-0.9041 -1.97842,-0.55878 -2.87903,-1.66801 -2.39275,-2.94701 0.49587,-1.30424 1.34695,-1.82641 2.97686,-1.82641 1.83394,0 3.06648,0.62389 3.06648,1.55219 0,0.96766 -0.94479,1.24695 -1.75078,0.51755 -0.72065,-0.65219 -1.80926,-0.62192 -2.03516,0.0566 -0.0826,0.24821 0.485,0.58774 1.38188,0.82657 2.0178,0.53734 2.75684,1.25241 2.75684,2.66743 0,1.56979 -1.04579,2.25839 -3.42988,2.25839 -1.39142,0 -2.04004,-0.17826 -2.56734,-0.70556 z M 53.425132,124.71514 c -0.131098,-0.21212 -0.09246,-0.53158 0.08587,-0.7099 0.193112,-0.19312 11.372688,-0.28768 27.64468,-0.23385 24.009488,0.0794 27.320448,0.15452 27.320448,0.61955 0,0.46506 -3.32049,0.54012 -27.406321,0.61952 -19.53851,0.0644 -27.474749,-0.0203 -27.64468,-0.29532 z m 8.739483,-7.27365 0.09763,-5.18557 2.459551,-0.0954 c 2.967397,-0.11506 3.863464,0.35723 4.460868,2.35119 0.322446,1.07623 0.326644,1.73484 0.01764,2.76622 -0.580767,1.93842 -1.53368,2.66632 -3.516923,2.68644 -1.656931,0.0168 -1.657262,0.0171 -1.766732,1.33974 -0.09448,1.14152 -0.228795,1.32292 -0.97957,1.32292 h -0.87008 z m 4.149087,0.60239 c 0.954852,-0.51102 1.252413,-2.30839 0.557696,-3.36866 -0.706916,-1.07889 -1.750624,-1.11416 -2.472487,-0.0836 -0.74906,1.06943 -0.6894,2.25072 0.156385,3.09651 0.81231,0.81231 0.879753,0.82595 1.758406,0.35571 z m -11.142415,1.62842 c -1.101714,-0.49817 -1.723128,-1.422 -1.356038,-2.01597 0.29392,-0.47557 1.29758,-0.36949 2.076223,0.21944 0.376633,0.28488 1.062961,0.51795 1.525173,0.51795 1.415231,0 0.797109,-1.10336 -0.898224,-1.60335 -1.989886,-0.58687 -2.546459,-1.09403 -2.546459,-2.3204 0,-1.56633 1.103495,-2.42625 3.113506,-2.42625 1.345905,0 1.870759,0.17922 2.506405,0.85583 1.331488,1.41731 0.171582,2.18853 -1.572654,1.04566 -0.911868,-0.59748 -2.085237,-0.42515 -1.852816,0.27211 0.07505,0.22514 0.881364,0.62655 1.791819,0.89203 2.631016,0.76716 3.376185,2.61155 1.67656,4.14969 -0.900218,0.81468 -3.121003,1.0203 -4.463495,0.41326 z m 17.278576,-0.008 c -0.605695,-0.27118 -1.359757,-0.8621 -1.675694,-1.31316 -1.127952,-1.61038 -0.445086,-5.08001 1.16992,-5.94433 1.010878,-0.54101 3.281977,-0.43913 4.176395,0.18734 0.432333,0.30282 1.043503,1.04842 1.358152,1.65688 l 0.572093,1.1063 0.663455,-1.29321 c 0.807008,-1.57302 1.576211,-2.02055 3.472844,-2.02055 2.341619,0 4.281134,2.45006 2.1838,2.75864 -0.421686,0.062 -1.015905,-0.13639 -1.320483,-0.44097 -1.821518,-1.82152 -3.623133,1.30539 -1.945068,3.37589 l 0.674984,0.83283 1.074621,-0.79375 c 1.252311,-0.925 2.161526,-1.02653 2.161526,-0.24139 0,2.75477 -4.849474,3.41935 -6.179746,0.84689 -0.28767,-0.55629 -0.523032,-1.2336 -0.523032,-1.50514 0,-0.39472 -0.548146,-0.46083 -2.734028,-0.32974 -3.077581,0.18456 -3.576493,0.42471 -2.701026,1.30018 0.418726,0.41873 0.891706,0.53659 1.521983,0.37928 2.477576,-0.6184 2.854737,-0.62597 2.854737,-0.0573 0,1.34488 -3.033232,2.28872 -4.805433,1.49529 z m 2.803299,-4.67785 c 0.397108,-0.39711 -0.512526,-1.17899 -1.371631,-1.17899 -0.891343,0 -1.380928,0.50016 -1.035957,1.05833 0.242824,0.3929 2.045028,0.48322 2.407588,0.12066 z m 24.937598,4.56749 c -2.037789,-1.04589 -2.728909,-3.54873 -1.588759,-5.75354 0.67963,-1.31424 1.523989,-1.75683 3.351679,-1.75683 1.97791,0 3.62293,1.55009 3.45833,3.25874 l -0.11088,1.15098 -2.29306,0.10683 c -2.66802,0.12429 -3.114769,0.40101 -2.11221,1.30831 0.62854,0.56882 0.88316,0.60105 1.88546,0.23861 0.63733,-0.23046 1.42533,-0.41902 1.75111,-0.41902 0.85934,0 0.72602,0.95445 -0.21988,1.57423 -1.34299,0.87996 -2.77779,0.9815 -4.12179,0.29169 z m 2.9106,-4.54625 c 0.47361,-0.4736 -0.23383,-1.20023 -1.16854,-1.20023 -1.05117,0 -1.58511,0.46402 -1.2178,1.05833 0.23526,0.38067 2.04025,0.488 2.38634,0.1419 z m -16.166809,4.33736 c -0.097,-0.25279 -0.13171,-2.51498 -0.0771,-5.02708 0.0963,-4.43351 0.12253,-4.57076 0.893,-4.68018 0.73726,-0.10471 0.79414,0.0208 0.79916,1.76388 0.003,1.03215 0.15928,2.11475 0.34736,2.40579 0.28576,0.44219 0.51975,0.34071 1.42359,-0.61736 1.08604,-1.1512 2.21168,-1.47606 2.65108,-0.76508 0.12966,0.20979 -0.17847,0.81379 -0.68473,1.34222 -1.1666,1.21766 -1.15431,1.52245 0.1466,3.6367 1.16005,1.88532 1.11678,2.40074 -0.20153,2.40074 -0.61584,0 -1.10716,-0.39674 -1.7475,-1.41111 -1.04753,-1.6594 -1.49543,-1.76995 -1.78663,-0.44097 -0.11692,0.53358 -0.27371,1.16858 -0.34843,1.41111 -0.17891,0.58075 -1.18995,0.56742 -1.41485,-0.0187 z m 8.20702,0.23664 c -0.13606,-0.13606 -0.24739,-2.44342 -0.24739,-5.12747 v -4.88009 h 0.89164 0.89162 l -0.0979,5.02268 c -0.0819,4.20313 -0.18704,5.03977 -0.64425,5.12747 -0.30051,0.0576 -0.65769,-0.007 -0.79375,-0.14259 z m 11.531349,-0.28143 c -0.35125,-0.91534 0.14107,-1.67188 1.00788,-1.54879 0.58305,0.0828 0.79533,0.34833 0.79533,0.99488 0,0.64655 -0.21228,0.91209 -0.79533,0.99488 -0.47705,0.0677 -0.88039,-0.10872 -1.00788,-0.44097 z"
           style="fill:#007efe;stroke-width:0.35277778" />
      </g>
    </g>
  </g>
</svg>
